<svg id="visual" viewBox="0 0 1920 1080" width="1920" height="1080" xmlns="http://www.w3.org/2000/svg" xmlns:xlink="http://www.w3.org/1999/xlink" version="1.1"><rect x="0" y="0" width="1920" height="1080" fill="#001122"></rect><path d="M0 334L24.7 330.8C49.3 327.7 98.7 321.3 147.8 322.8C197 324.3 246 333.7 295.2 338.7C344.3 343.7 393.7 344.3 443 346.8C492.3 349.3 541.7 353.7 590.8 350.5C640 347.3 689 336.7 738.2 339.3C787.3 342 836.7 358 886 359.8C935.3 361.7 984.7 349.3 1034 346.7C1083.3 344 1132.7 351 1181.8 350C1231 349 1280 340 1329.2 343C1378.3 346 1427.7 361 1477 358.8C1526.3 356.7 1575.7 337.3 1624.8 328.5C1674 319.7 1723 321.3 1772.2 331.2C1821.3 341 1870.7 359 1895.3 368L1920 377L1920 1081L1895.3 1081C1870.7 1081 1821.3 1081 1772.2 1081C1723 1081 1674 1081 1624.8 1081C1575.7 1081 1526.3 1081 1477 1081C1427.7 1081 1378.3 1081 1329.2 1081C1280 1081 1231 1081 1181.8 1081C1132.7 1081 1083.3 1081 1034 1081C984.7 1081 935.3 1081 886 1081C836.7 1081 787.3 1081 738.2 1081C689 1081 640 1081 590.8 1081C541.7 1081 492.3 1081 443 1081C393.7 1081 344.3 1081 295.2 1081C246 1081 197 1081 147.8 1081C98.7 1081 49.3 1081 24.7 1081L0 1081Z" fill="#fa7268"></path><path d="M0 448L24.7 450C49.3 452 98.7 456 147.8 458.8C197 461.7 246 463.3 295.2 464.8C344.3 466.3 393.7 467.7 443 470.7C492.3 473.7 541.7 478.3 590.8 475.5C640 472.7 689 462.3 738.2 459.2C787.3 456 836.7 460 886 464C935.3 468 984.7 472 1034 474.2C1083.3 476.3 1132.7 476.7 1181.8 475.2C1231 473.7 1280 470.3 1329.2 463.8C1378.3 457.3 1427.7 447.7 1477 445.3C1526.3 443 1575.7 448 1624.8 453.3C1674 458.7 1723 464.3 1772.2 461.3C1821.3 458.3 1870.7 446.7 1895.3 440.8L1920 435L1920 1081L1895.3 1081C1870.7 1081 1821.3 1081 1772.2 1081C1723 1081 1674 1081 1624.8 1081C1575.7 1081 1526.3 1081 1477 1081C1427.7 1081 1378.3 1081 1329.2 1081C1280 1081 1231 1081 1181.8 1081C1132.7 1081 1083.3 1081 1034 1081C984.7 1081 935.3 1081 886 1081C836.7 1081 787.3 1081 738.2 1081C689 1081 640 1081 590.8 1081C541.7 1081 492.3 1081 443 1081C393.7 1081 344.3 1081 295.2 1081C246 1081 197 1081 147.8 1081C98.7 1081 49.3 1081 24.7 1081L0 1081Z" fill="#f16367"></path><path d="M0 590L24.7 586.5C49.3 583 98.7 576 147.8 570.7C197 565.3 246 561.7 295.2 566.8C344.3 572 393.7 586 443 587.3C492.3 588.7 541.7 577.3 590.8 573.8C640 570.3 689 574.7 738.2 579.5C787.3 584.3 836.7 589.7 886 588C935.3 586.3 984.7 577.7 1034 578C1083.3 578.3 1132.7 587.7 1181.8 586.5C1231 585.3 1280 573.7 1329.2 569.8C1378.3 566 1427.7 570 1477 568.3C1526.3 566.7 1575.7 559.3 1624.8 562C1674 564.7 1723 577.3 1772.2 583.5C1821.3 589.7 1870.7 589.3 1895.3 589.2L1920 589L1920 1081L1895.3 1081C1870.7 1081 1821.3 1081 1772.2 1081C1723 1081 1674 1081 1624.8 1081C1575.7 1081 1526.3 1081 1477 1081C1427.7 1081 1378.3 1081 1329.2 1081C1280 1081 1231 1081 1181.8 1081C1132.7 1081 1083.3 1081 1034 1081C984.7 1081 935.3 1081 886 1081C836.7 1081 787.3 1081 738.2 1081C689 1081 640 1081 590.8 1081C541.7 1081 492.3 1081 443 1081C393.7 1081 344.3 1081 295.2 1081C246 1081 197 1081 147.8 1081C98.7 1081 49.3 1081 24.7 1081L0 1081Z" fill="#e85467"></path><path d="M0 698L24.7 693.5C49.3 689 98.7 680 147.8 682.7C197 685.3 246 699.7 295.2 699.5C344.3 699.3 393.7 684.7 443 683.5C492.3 682.3 541.7 694.7 590.8 698.8C640 703 689 699 738.2 697.8C787.3 696.7 836.7 698.3 886 695.5C935.3 692.7 984.7 685.3 1034 686.3C1083.3 687.3 1132.7 696.7 1181.8 701.5C1231 706.3 1280 706.7 1329.2 702C1378.3 697.3 1427.7 687.7 1477 683C1526.3 678.3 1575.7 678.7 1624.8 678.8C1674 679 1723 679 1772.2 681.8C1821.3 684.7 1870.7 690.3 1895.3 693.2L1920 696L1920 1081L1895.3 1081C1870.7 1081 1821.3 1081 1772.2 1081C1723 1081 1674 1081 1624.8 1081C1575.7 1081 1526.3 1081 1477 1081C1427.7 1081 1378.3 1081 1329.2 1081C1280 1081 1231 1081 1181.8 1081C1132.7 1081 1083.3 1081 1034 1081C984.7 1081 935.3 1081 886 1081C836.7 1081 787.3 1081 738.2 1081C689 1081 640 1081 590.8 1081C541.7 1081 492.3 1081 443 1081C393.7 1081 344.3 1081 295.2 1081C246 1081 197 1081 147.8 1081C98.7 1081 49.3 1081 24.7 1081L0 1081Z" fill="#de4467"></path><path d="M0 828L24.7 827.5C49.3 827 98.7 826 147.8 826C197 826 246 827 295.2 826.2C344.3 825.3 393.7 822.7 443 817.5C492.3 812.3 541.7 804.7 590.8 805.3C640 806 689 815 738.2 817.7C787.3 820.3 836.7 816.7 886 814.2C935.3 811.7 984.7 810.3 1034 806.5C1083.3 802.7 1132.7 796.3 1181.8 793.8C1231 791.3 1280 792.7 1329.2 798.2C1378.3 803.7 1427.7 813.3 1477 815.2C1526.3 817 1575.7 811 1624.8 808.2C1674 805.3 1723 805.7 1772.2 806.7C1821.3 807.7 1870.7 809.3 1895.3 810.2L1920 811L1920 1081L1895.3 1081C1870.7 1081 1821.3 1081 1772.2 1081C1723 1081 1674 1081 1624.8 1081C1575.7 1081 1526.3 1081 1477 1081C1427.7 1081 1378.3 1081 1329.2 1081C1280 1081 1231 1081 1181.8 1081C1132.7 1081 1083.3 1081 1034 1081C984.7 1081 935.3 1081 886 1081C836.7 1081 787.3 1081 738.2 1081C689 1081 640 1081 590.8 1081C541.7 1081 492.3 1081 443 1081C393.7 1081 344.3 1081 295.2 1081C246 1081 197 1081 147.8 1081C98.7 1081 49.3 1081 24.7 1081L0 1081Z" fill="#d23467"></path><path d="M0 922L24.7 923.7C49.3 925.3 98.7 928.7 147.8 931.7C197 934.7 246 937.3 295.2 938C344.3 938.7 393.7 937.3 443 934.3C492.3 931.3 541.7 926.7 590.8 923.5C640 920.3 689 918.7 738.2 918.5C787.3 918.3 836.7 919.7 886 920.5C935.3 921.3 984.7 921.7 1034 921.5C1083.3 921.3 1132.7 920.7 1181.8 920.8C1231 921 1280 922 1329.2 920.8C1378.3 919.7 1427.7 916.3 1477 915.5C1526.3 914.7 1575.7 916.3 1624.8 920.5C1674 924.7 1723 931.3 1772.2 934.2C1821.3 937 1870.7 936 1895.3 935.5L1920 935L1920 1081L1895.3 1081C1870.7 1081 1821.3 1081 1772.2 1081C1723 1081 1674 1081 1624.8 1081C1575.7 1081 1526.3 1081 1477 1081C1427.7 1081 1378.3 1081 1329.2 1081C1280 1081 1231 1081 1181.8 1081C1132.7 1081 1083.3 1081 1034 1081C984.7 1081 935.3 1081 886 1081C836.7 1081 787.3 1081 738.2 1081C689 1081 640 1081 590.8 1081C541.7 1081 492.3 1081 443 1081C393.7 1081 344.3 1081 295.2 1081C246 1081 197 1081 147.8 1081C98.7 1081 49.3 1081 24.7 1081L0 1081Z" fill="#c62368"></path></svg>